<svg version="1.1" id="Layer_1" xmlns="http://www.w3.org/2000/svg" xmlns:xlink="http://www.w3.org/1999/xlink" x="0px" y="0px"
	 width="100%" viewBox="0 0 512 512" enable-background="new 0 0 512 512" xml:space="preserve">
<path fill="#000000" opacity="1.000000" stroke="none" 
	d="
M293.000000,513.000000 
	C195.357040,513.000000 98.214073,513.000000 1.071115,513.000000 
	C1.047411,512.857056 1.002928,512.714172 1.002925,512.571228 
	C0.999986,342.112823 1.000000,171.654419 1.000000,1.098012 
	C171.559647,1.098012 342.119354,1.098012 512.839539,1.098012 
	C512.839539,171.666550 512.839539,342.333252 512.839539,513.000000 
	C439.797333,513.000000 366.648651,513.000000 293.000000,513.000000 
M209.026566,415.095154 
	C209.013229,411.729095 208.999893,408.363068 209.925125,404.966919 
	C213.376175,404.965607 216.827240,404.962646 220.278290,404.963226 
	C232.136261,404.965302 232.136261,404.965790 231.583481,392.185364 
	C224.157578,392.185364 216.731659,392.185364 209.031494,392.185364 
	C209.031494,389.009430 209.031494,386.545258 209.960617,384.007446 
	C217.055786,384.005585 224.151978,384.068115 231.245331,383.953796 
	C232.892624,383.927277 234.530212,383.298126 236.796921,382.414215 
	C236.794479,378.596436 236.792053,374.778656 236.349152,370.266174 
	C223.289902,370.231293 210.230667,370.196411 196.385742,370.055054 
	C195.637360,371.087341 194.888977,372.119629 194.108398,374.064240 
	C194.063980,390.968811 193.996689,407.873444 194.018814,424.777924 
	C194.020569,426.122375 194.641312,427.466034 195.912949,428.870789 
	C206.674072,428.611969 217.451935,428.638092 228.191147,428.006561 
	C237.221237,427.475494 237.201935,427.136566 236.976837,417.927032 
	C236.968719,417.595184 236.924133,417.264252 236.492920,416.179108 
	C227.323654,416.095154 218.154388,416.011200 208.987396,416.012756 
	C208.987396,416.012756 209.072922,416.013306 209.026566,415.095154 
M128.115906,370.000702 
	C125.985313,370.202728 123.842827,370.658478 121.726357,370.559235 
	C115.363266,370.260956 114.827888,373.909637 114.963730,379.078156 
	C115.282066,391.190033 114.933052,403.317780 115.102806,415.435608 
	C115.306198,429.955231 112.043076,429.141876 129.778290,428.462158 
	C129.827667,409.499817 129.884171,390.537476 129.887222,371.575134 
	C129.887314,371.076721 129.305191,370.578247 128.115906,370.000702 
M446.843140,427.512787 
	C447.001831,413.026764 447.160492,398.540771 448.210571,384.136658 
	C449.203369,384.143982 450.197235,384.185272 451.188782,384.153503 
	C465.768158,383.686523 463.991638,387.364044 463.291534,370.258179 
	C448.582397,370.224884 433.873260,370.191589 418.343262,370.050629 
	C412.358002,371.370392 415.829407,376.144775 415.063019,379.318939 
	C414.428619,381.946320 415.824127,383.142365 418.641418,383.037598 
	C423.063843,382.873138 427.497162,383.000336 431.929688,383.940308 
	C431.940735,397.477722 431.918427,411.015320 432.010345,424.552185 
	C432.020386,426.030151 432.688019,427.503601 433.839630,429.041626 
	C437.919861,428.663177 442.000122,428.284698 446.843140,427.512787 
M251.173050,427.804413 
	C253.931076,427.804413 256.689117,427.804413 259.982666,427.804413 
	C259.982666,424.021942 259.849762,420.892395 260.019165,417.779266 
	C260.197235,414.507751 260.664734,411.252014 261.941071,407.968384 
	C266.271210,407.980103 270.601501,408.023224 274.931427,407.996399 
	C282.056610,407.952271 288.741913,403.283325 290.952454,396.659821 
	C295.665497,382.537964 286.551514,367.904297 268.752747,370.708893 
	C262.838470,371.640869 256.553162,371.326538 250.594131,370.479584 
	C246.567413,369.907257 245.962341,371.060547 245.976059,374.411499 
	C246.043488,390.899139 246.072006,407.387482 245.980042,423.874817 
	C245.961899,427.126160 246.903290,428.660828 251.173050,427.804413 
M141.889709,428.888641 
	C152.015930,428.607758 162.161606,427.810760 172.262878,428.191559 
	C182.311111,428.570312 188.441788,415.770355 185.062531,408.093170 
	C183.415710,404.351807 180.505753,401.166443 178.111938,397.647614 
	C183.065094,392.026215 184.750320,384.888794 181.783615,378.852692 
	C178.590530,372.356049 172.802597,370.017090 164.915588,370.116150 
	C156.692749,370.116150 148.469910,370.116150 140.005585,370.116150 
	C140.005585,389.439758 139.995071,408.034637 140.045639,426.629333 
	C140.047577,427.343048 140.637970,428.055145 141.889709,428.888641 
M218.915451,353.936584 
	C228.003983,353.646851 237.092499,353.357117 246.753952,353.622772 
	C247.245300,353.701416 247.736511,353.848114 248.227997,353.849030 
	C278.214386,353.905426 308.200806,353.960022 338.187195,353.959869 
	C339.444244,353.959869 340.701263,353.438629 342.658386,352.997467 
	C343.224915,352.438782 343.948273,351.971344 344.334534,351.307739 
	C350.588318,340.563782 356.807434,329.799561 363.018463,319.030731 
	C383.881104,282.858459 404.737457,246.682571 425.487000,210.697388 
	C412.608368,188.336548 399.840729,166.140152 387.045197,143.959885 
	C374.742035,122.633110 362.376251,101.342384 350.102753,79.998611 
	C342.224274,66.297897 342.276764,66.267715 326.938904,67.105751 
	C311.273041,67.071793 295.607208,67.037842 279.512451,66.940155 
	C279.512451,66.940155 279.084778,67.011581 278.703308,66.207253 
	C245.754196,66.138962 212.805084,66.064728 179.855942,66.045372 
	C179.201538,66.044991 178.546722,66.686966 177.240036,67.239960 
	C171.653641,76.794556 166.023514,86.323906 160.490265,95.909187 
	C150.147003,113.826874 139.897400,131.798676 129.539337,149.707764 
	C118.363327,169.031082 107.058250,188.280106 95.988297,207.663681 
	C95.172302,209.092499 95.075935,211.755951 95.866470,213.155472 
	C108.327995,235.216751 120.957314,257.183624 133.615326,279.133423 
	C145.527145,299.789246 157.443146,320.443512 169.534714,340.994080 
	C172.047134,345.264099 175.338898,349.075562 178.778198,353.732758 
	C191.844818,353.780365 204.911453,353.827942 218.915451,353.936584 
M299.387970,412.879578 
	C304.212189,423.092010 311.493256,429.209137 323.571838,428.078613 
	C328.354187,427.631042 333.243622,428.322327 338.024628,427.867645 
	C340.840698,427.599884 344.001892,426.713623 346.209473,425.047607 
	C354.719299,418.625488 359.316620,410.308746 359.096771,399.121582 
	C358.619446,374.832581 334.539032,363.511169 315.181671,371.371094 
	C298.848846,378.002960 293.265350,396.774841 299.387970,412.879578 
M376.467407,370.725464 
	C367.989349,373.653076 363.812225,381.285889 365.744293,389.801086 
	C367.017731,395.413452 371.273224,398.346649 375.663513,400.800903 
	C381.849823,404.259186 388.484619,406.907654 394.774414,410.195465 
	C395.870056,410.768219 396.811340,412.836884 396.703094,414.120117 
	C396.621216,415.090942 394.731201,416.691711 393.685272,416.661224 
	C389.494843,416.539032 385.125488,416.500854 381.197449,415.251862 
	C377.754028,414.156921 374.812256,411.484344 371.449005,409.383789 
	C369.259155,412.169250 366.946960,414.782196 365.080414,417.682037 
	C364.511108,418.566498 364.653656,420.914215 365.346893,421.443390 
	C369.899231,424.918640 374.228882,428.733643 380.802673,428.119690 
	C386.583710,427.579742 392.454895,428.015900 398.286224,428.000519 
	C404.588806,427.983887 409.388855,424.279449 410.995117,418.222839 
	C413.596283,408.415131 409.139984,400.029053 399.223083,396.144531 
	C394.034607,394.112183 388.714813,392.369232 383.685425,390.004120 
	C382.127197,389.271362 381.329285,386.921753 380.183258,385.312347 
	C381.823792,384.205658 383.373718,382.398529 385.128082,382.171570 
	C387.266571,381.894958 389.777710,382.539856 391.765472,383.520386 
	C394.690704,384.963348 397.295563,387.055664 399.612030,388.589996 
	C402.858582,385.699585 406.010010,382.893890 409.682892,379.623932 
	C406.215332,376.821869 403.521027,374.052277 400.307587,372.167847 
	C392.992249,367.878021 385.103027,368.291168 376.467407,370.725464 
M67.093849,411.295837 
	C67.724350,413.179382 68.314056,415.077789 68.991959,416.944092 
	C73.470497,429.274078 73.475311,429.178589 85.018814,429.009186 
	C87.750160,428.969116 89.158257,428.199493 90.084740,425.537384 
	C94.700928,412.273682 99.546333,399.089935 104.223053,385.846985 
	C105.885437,381.139679 107.299461,376.344666 108.900925,371.359100 
	C103.662704,371.011841 99.231613,370.718109 94.084450,370.376862 
	C90.047440,382.376709 85.896255,394.715912 81.532654,407.686523 
	C80.837845,406.260345 80.401131,405.556396 80.137016,404.792786 
	C76.582108,394.514191 73.118546,384.203033 69.439819,373.969208 
	C68.905609,372.483093 67.362701,370.253510 66.299149,370.260590 
	C62.289417,370.287262 58.284889,371.095673 53.361660,371.729370 
	C58.014019,385.034454 62.470089,397.778198 67.093849,411.295837 
z"/>
<path fill="#142F4B" opacity="1.000000" stroke="none" 
	d="
M279.084778,67.011581 
	C279.084778,67.011581 279.512451,66.940155 280.034363,67.262909 
	C295.886597,67.660934 311.216949,67.741768 326.547363,67.783112 
	C326.981262,67.784279 327.416260,67.364456 327.850769,67.140930 
	C342.276764,66.267715 342.224274,66.297897 350.102753,79.998611 
	C362.376251,101.342384 374.742035,122.633110 387.045197,143.959885 
	C399.840729,166.140152 412.608368,188.336548 425.487000,210.697388 
	C404.737457,246.682571 383.881104,282.858459 363.018463,319.030731 
	C356.807434,329.799561 350.588318,340.563782 344.334534,351.307739 
	C343.948273,351.971344 343.224915,352.438782 341.843872,353.042450 
	C309.413269,353.080750 277.797150,353.074066 246.181030,353.067413 
	C237.092499,353.357117 228.003983,353.646851 218.214722,353.546143 
	C204.433151,353.136597 191.352310,353.117493 178.271484,353.098389 
	C175.338898,349.075562 172.047134,345.264099 169.534714,340.994080 
	C157.443146,320.443512 145.527145,299.789246 133.615326,279.133423 
	C120.957314,257.183624 108.327995,235.216751 95.866470,213.155472 
	C95.075935,211.755951 95.172302,209.092499 95.988297,207.663681 
	C107.058250,188.280106 118.363327,169.031082 129.539337,149.707764 
	C139.897400,131.798676 150.147003,113.826874 160.490265,95.909187 
	C166.023514,86.323906 171.653641,76.794556 178.038742,67.190353 
	C212.253220,67.097694 245.669006,67.054634 279.084778,67.011581 
M391.711761,221.270737 
	C390.381989,220.847672 389.052887,220.057312 387.722382,220.054977 
	C349.585266,219.988373 311.447968,219.983582 273.310913,220.067490 
	C271.877686,220.070648 270.446655,221.059174 268.467346,221.932068 
	C268.259888,222.296600 268.052429,222.661133 267.294708,223.404068 
	C250.177765,252.111694 233.060822,280.819305 215.943893,309.526947 
	C216.214600,309.800354 216.485306,310.073730 216.756027,310.347137 
	C246.593842,293.174896 276.431641,276.002686 306.451660,258.725586 
	C316.440125,278.891510 326.149261,298.493500 336.144592,318.673309 
	C343.376801,306.146790 350.207672,294.368439 356.987366,282.560699 
	C368.076324,263.247803 379.131927,243.915771 390.707703,224.204010 
	C391.135803,223.475418 391.563873,222.746841 391.711761,221.270737 
M316.005157,329.997711 
	C309.748901,316.875275 303.492615,303.752838 297.115845,290.377625 
	C274.273407,303.520416 251.990143,316.334442 229.735565,329.198120 
	C229.303162,329.448059 229.208603,330.282501 229.548370,331.449707 
	C230.347336,331.632721 231.146103,331.974854 231.945282,331.975739 
	C258.756927,332.005676 285.568665,332.019501 312.380157,331.950623 
	C313.561707,331.947571 314.741180,331.145935 316.005157,329.997711 
M315.338776,89.421700 
	C314.529572,89.282631 313.720459,89.022621 312.911163,89.021988 
	C285.195892,89.000229 257.480560,88.991096 229.765381,89.041229 
	C228.514984,89.043495 227.265610,89.614105 225.493332,90.244621 
	C225.685379,90.647987 225.766602,91.243500 226.085281,91.427345 
	C249.583389,104.983238 273.100311,118.506538 296.924469,132.210022 
	C303.650848,118.480713 310.278778,104.973526 316.834259,91.431282 
	C316.976410,91.137703 316.288452,90.442276 315.338776,89.421700 
M157.254333,273.238129 
	C165.910995,288.170288 174.567642,303.102448 183.396667,318.331909 
	C204.707535,282.888367 225.808411,247.843704 246.768906,212.715240 
	C247.461929,211.553772 247.295959,209.210526 246.574036,207.978607 
	C240.099075,196.929855 233.405182,186.009476 226.783951,175.046341 
	C212.362106,151.167236 197.945145,127.285164 183.377396,103.157852 
	C182.918411,103.729492 182.551910,104.083092 182.306122,104.506729 
	C162.276154,139.032440 142.227509,173.547470 122.348549,208.159958 
	C121.636398,209.399918 122.072769,211.909592 122.872856,213.316147 
	C134.138290,233.121002 145.559891,252.837021 157.254333,273.238129 
M245.140808,161.365036 
	C251.925171,172.619125 258.806213,183.816833 265.425049,195.167435 
	C267.053253,197.959641 268.794098,198.996704 272.089081,198.985107 
	C310.551636,198.849609 349.014893,198.895142 387.477936,198.892822 
	C388.747070,198.892746 390.016205,198.892807 392.138947,198.892807 
	C373.480133,166.670425 355.215698,135.129105 336.601227,102.983322 
	C326.362030,123.866814 316.512909,143.954773 306.580200,164.213135 
	C276.271545,146.719009 246.361572,129.455002 216.451599,112.191002 
	C216.291061,112.427444 216.130524,112.663879 215.969986,112.900314 
	C225.579788,128.840759 235.189606,144.781204 245.140808,161.365036 
z"/>
<path fill="#16304C" opacity="1.000000" stroke="none" 
	d="
M165.823410,370.161469 
	C172.802597,370.017090 178.590530,372.356049 181.783615,378.852692 
	C184.750320,384.888794 183.065094,392.026215 178.111938,397.647614 
	C180.505753,401.166443 183.415710,404.351807 185.062531,408.093170 
	C188.441788,415.770355 182.311111,428.570312 172.262878,428.191559 
	C162.161606,427.810760 152.015930,428.607758 141.445282,428.379517 
	C141.015747,410.739868 141.174911,393.607391 140.946167,376.480072 
	C140.887482,372.086212 142.112854,370.724213 146.547333,370.855713 
	C152.960205,371.045807 159.396881,370.432190 165.823410,370.161469 
M164.026825,417.017456 
	C170.153595,415.838318 172.722977,412.621582 170.703400,408.658661 
	C169.433289,406.166382 157.336090,404.715363 155.534485,406.852722 
	C155.334213,407.090332 155.260071,407.438873 155.144485,407.742493 
	C152.958374,413.486115 155.452988,417.045227 161.652969,417.031006 
	C162.151535,417.029846 162.650101,417.027130 164.026825,417.017456 
M167.440536,391.720062 
	C169.965576,387.287018 169.180542,383.759552 165.298523,383.160828 
	C162.696564,382.759491 159.862198,382.607666 157.378693,383.269958 
	C156.273621,383.564667 155.161880,386.142120 155.165466,387.680878 
	C155.169601,389.458069 156.246170,392.656586 157.125885,392.751678 
	C160.273148,393.091949 163.534210,392.379791 167.440536,391.720062 
z"/>
<path fill="#17314D" opacity="1.000000" stroke="none" 
	d="
M299.210022,412.529907 
	C293.265350,396.774841 298.848846,378.002960 315.181671,371.371094 
	C334.539032,363.511169 358.619446,374.832581 359.096771,399.121582 
	C359.316620,410.308746 354.719299,418.625488 346.209473,425.047607 
	C344.001892,426.713623 340.840698,427.599884 338.024628,427.867645 
	C333.243622,428.322327 328.354187,427.631042 323.571838,428.078613 
	C311.493256,429.209137 304.212189,423.092010 299.210022,412.529907 
M317.486511,385.958557 
	C309.995544,392.993958 310.107361,402.166412 313.742981,409.925323 
	C316.356201,415.502350 323.447723,418.689606 332.573517,416.819580 
	C339.149109,415.472107 344.604218,408.395355 344.969513,400.908203 
	C345.325592,393.610474 341.972748,388.003448 336.143982,384.240448 
	C330.094208,380.334778 323.843567,381.377869 317.486511,385.958557 
z"/>
<path fill="#17314D" opacity="1.000000" stroke="none" 
	d="
M376.824097,370.539764 
	C385.103027,368.291168 392.992249,367.878021 400.307587,372.167847 
	C403.521027,374.052277 406.215332,376.821869 409.682892,379.623932 
	C406.010010,382.893890 402.858582,385.699585 399.612030,388.589996 
	C397.295563,387.055664 394.690704,384.963348 391.765472,383.520386 
	C389.777710,382.539856 387.266571,381.894958 385.128082,382.171570 
	C383.373718,382.398529 381.823792,384.205658 380.183289,385.312378 
	C381.329285,386.921753 382.127197,389.271362 383.685425,390.004120 
	C388.714813,392.369232 394.034607,394.112183 399.223083,396.144531 
	C409.139984,400.029053 413.596283,408.415131 410.995117,418.222839 
	C409.388855,424.279449 404.588806,427.983887 398.286224,428.000519 
	C392.454895,428.015900 386.583710,427.579742 380.802673,428.119690 
	C374.228882,428.733643 369.899231,424.918640 365.346893,421.443390 
	C364.653656,420.914215 364.511108,418.566498 365.080414,417.682037 
	C366.946960,414.782196 369.259155,412.169250 371.449005,409.383789 
	C374.812256,411.484344 377.754028,414.156921 381.197449,415.251862 
	C385.125488,416.500854 389.494843,416.539032 393.685272,416.661224 
	C394.731201,416.691711 396.621216,415.090942 396.703094,414.120117 
	C396.811340,412.836884 395.870056,410.768219 394.774414,410.195465 
	C388.484619,406.907654 381.849823,404.259186 375.663513,400.800903 
	C371.273224,398.346649 367.017731,395.413452 365.744293,389.801086 
	C363.812225,381.285889 367.989349,373.653076 376.824097,370.539764 
z"/>
<path fill="#17304C" opacity="1.000000" stroke="none" 
	d="
M194.140594,373.151917 
	C194.888977,372.119629 195.637360,371.087341 197.101013,370.335510 
	C210.807388,370.730896 223.798508,370.845886 236.789612,370.960876 
	C236.792053,374.778656 236.794479,378.596436 236.008224,382.617310 
	C226.458282,382.864075 217.697037,382.907745 208.541183,383.133545 
	C208.146576,386.409943 208.146576,389.504181 208.146576,392.984558 
	C216.373932,392.984558 224.151672,392.984558 231.929398,392.984558 
	C232.136261,404.965790 232.136261,404.965302 220.278290,404.963226 
	C216.827240,404.962646 213.376175,404.965607 209.080383,405.183136 
	C208.514740,408.937347 208.793823,412.475311 209.072906,416.013306 
	C209.072922,416.013306 208.987396,416.012756 209.153809,416.375000 
	C218.512344,416.802429 227.704453,416.867676 236.896545,416.932892 
	C236.924133,417.264252 236.968719,417.595184 236.976837,417.927032 
	C237.201935,427.136566 237.221237,427.475494 228.191147,428.006561 
	C217.451935,428.638092 206.674072,428.611969 195.452698,428.387939 
	C194.978912,411.590363 194.992188,395.275574 194.916275,378.961151 
	C194.907242,377.023590 194.410980,375.088287 194.140594,373.151917 
z"/>
<path fill="#16304C" opacity="1.000000" stroke="none" 
	d="
M250.321091,427.759979 
	C246.903290,428.660828 245.961899,427.126160 245.980042,423.874817 
	C246.072006,407.387482 246.043488,390.899139 245.976059,374.411499 
	C245.962341,371.060547 246.567413,369.907257 250.594131,370.479584 
	C256.553162,371.326538 262.838470,371.640869 268.752747,370.708893 
	C286.551514,367.904297 295.665497,382.537964 290.952454,396.659821 
	C288.741913,403.283325 282.056610,407.952271 274.931427,407.996399 
	C270.601501,408.023224 266.271210,407.980103 261.075928,408.072083 
	C259.820038,410.821930 259.112427,413.466034 259.095123,416.114624 
	C259.031128,425.914948 259.116760,425.915497 250.321091,427.759979 
M264.519135,395.960449 
	C267.629852,395.571960 270.917145,395.679382 273.800690,394.652832 
	C276.575134,393.665192 278.725464,391.820374 277.388916,387.761444 
	C275.846832,383.078247 272.538483,382.994781 268.786591,382.991150 
	C259.151917,382.981812 259.163696,383.063019 259.862274,392.651398 
	C260.059570,395.359680 261.237305,396.135681 264.519135,395.960449 
z"/>
<path fill="#19324E" opacity="1.000000" stroke="none" 
	d="
M67.010002,410.908875 
	C62.470089,397.778198 58.014019,385.034454 53.361660,371.729370 
	C58.284889,371.095673 62.289417,370.287262 66.299149,370.260590 
	C67.362701,370.253510 68.905609,372.483093 69.439819,373.969208 
	C73.118546,384.203033 76.582108,394.514191 80.137016,404.792786 
	C80.401131,405.556396 80.837845,406.260345 81.532654,407.686523 
	C85.896255,394.715912 90.047440,382.376709 94.084450,370.376862 
	C99.231613,370.718109 103.662704,371.011841 108.900925,371.359100 
	C107.299461,376.344666 105.885437,381.139679 104.223053,385.846985 
	C99.546333,399.089935 94.700928,412.273682 90.084740,425.537384 
	C89.158257,428.199493 87.750160,428.969116 85.018814,429.009186 
	C73.475311,429.178589 73.470497,429.274078 68.991959,416.944092 
	C68.314056,415.077789 67.724350,413.179382 67.010002,410.908875 
z"/>
<path fill="#16314D" opacity="1.000000" stroke="none" 
	d="
M463.784485,370.901306 
	C463.991638,387.364044 465.768158,383.686523 451.188782,384.153503 
	C450.197235,384.185272 449.203369,384.143982 447.556946,383.743988 
	C446.570374,384.287994 445.948273,385.224579 445.947998,386.161316 
	C445.943695,400.076294 446.021759,413.991272 446.080353,427.906250 
	C442.000122,428.284698 437.919861,428.663177 433.487305,428.545044 
	C433.102142,414.727905 433.108307,401.406982 432.987854,388.087219 
	C432.972504,386.389740 432.296021,384.698273 431.925842,383.003998 
	C427.497162,383.000336 423.063843,382.873138 418.641418,383.037598 
	C415.824127,383.142365 414.428619,381.946320 415.063019,379.318939 
	C415.829407,376.144775 412.358002,371.370392 419.076782,370.331909 
	C434.468353,370.709259 449.126404,370.805267 463.784485,370.901306 
z"/>
<path fill="#142E4A" opacity="1.000000" stroke="none" 
	d="
M129.029221,428.864594 
	C112.043076,429.141876 115.306198,429.955231 115.102806,415.435608 
	C114.933052,403.317780 115.282066,391.190033 114.963730,379.078156 
	C114.827888,373.909637 115.363266,370.260956 121.726357,370.559235 
	C123.842827,370.658478 125.985313,370.202728 128.559509,370.502411 
	C129.011810,390.290955 129.020523,409.577759 129.029221,428.864594 
z"/>
<path fill="#FEFEFE" opacity="1.000000" stroke="none" 
	d="
M278.894043,66.609421 
	C245.669006,67.054634 212.253220,67.097694 178.364777,67.085007 
	C178.546722,66.686966 179.201538,66.044991 179.855942,66.045372 
	C212.805084,66.064728 245.754196,66.138962 278.894043,66.609421 
z"/>
<path fill="#874A01" opacity="1.000000" stroke="none" 
	d="
M246.467499,353.345093 
	C277.797150,353.074066 309.413269,353.080750 341.493835,353.123840 
	C340.701263,353.438629 339.444244,353.959869 338.187195,353.959869 
	C308.200806,353.960022 278.214386,353.905426 248.227997,353.849030 
	C247.736511,353.848114 247.245300,353.701416 246.467499,353.345093 
z"/>
<path fill="#54616F" opacity="1.000000" stroke="none" 
	d="
M165.369507,370.138794 
	C159.396881,370.432190 152.960205,371.045807 146.547333,370.855713 
	C142.112854,370.724213 140.887482,372.086212 140.946167,376.480072 
	C141.174911,393.607391 141.015747,410.739868 140.977509,428.319214 
	C140.637970,428.055145 140.047577,427.343048 140.045639,426.629333 
	C139.995071,408.034637 140.005585,389.439758 140.005585,370.116150 
	C148.469910,370.116150 156.692749,370.116150 165.369507,370.138794 
z"/>
<path fill="#777F8C" opacity="1.000000" stroke="none" 
	d="
M129.403748,428.663391 
	C129.020523,409.577759 129.011810,390.290955 128.998840,370.541962 
	C129.305191,370.578247 129.887314,371.076721 129.887222,371.575134 
	C129.884171,390.537476 129.827667,409.499817 129.403748,428.663391 
z"/>
<path fill="#54616F" opacity="1.000000" stroke="none" 
	d="
M194.124481,373.608093 
	C194.410980,375.088287 194.907242,377.023590 194.916275,378.961151 
	C194.992188,395.275574 194.978912,411.590363 194.983429,428.357544 
	C194.641312,427.466034 194.020569,426.122375 194.018814,424.777924 
	C193.996689,407.873444 194.063980,390.968811 194.124481,373.608093 
z"/>
<path fill="#4B5B6F" opacity="1.000000" stroke="none" 
	d="
M327.394836,67.123344 
	C327.416260,67.364456 326.981262,67.784279 326.547363,67.783112 
	C311.216949,67.741768 295.886597,67.660934 280.248810,67.294777 
	C295.607208,67.037842 311.273041,67.071793 327.394836,67.123344 
z"/>
<path fill="#54616F" opacity="1.000000" stroke="none" 
	d="
M431.927765,383.472168 
	C432.296021,384.698273 432.972504,386.389740 432.987854,388.087219 
	C433.108307,401.406982 433.102142,414.727905 433.092834,428.513794 
	C432.688019,427.503601 432.020386,426.030151 432.010345,424.552185 
	C431.918427,411.015320 431.940735,397.477722 431.927765,383.472168 
z"/>
<path fill="#9DA3AA" opacity="1.000000" stroke="none" 
	d="
M446.461731,427.709534 
	C446.021759,413.991272 445.943695,400.076294 445.947998,386.161316 
	C445.948273,385.224579 446.570374,384.287994 447.111237,383.703033 
	C447.160492,398.540771 447.001831,413.026764 446.461731,427.709534 
z"/>
<path fill="#54616F" opacity="1.000000" stroke="none" 
	d="
M463.538025,370.579742 
	C449.126404,370.805267 434.468353,370.709259 419.487183,370.385742 
	C433.873260,370.191589 448.582397,370.224884 463.538025,370.579742 
z"/>
<path fill="#FD7F00" opacity="1.000000" stroke="none" 
	d="
M178.524841,353.415588 
	C191.352310,353.117493 204.433151,353.136597 217.746033,353.515625 
	C204.911453,353.827942 191.844818,353.780365 178.524841,353.415588 
z"/>
<path fill="#54616F" opacity="1.000000" stroke="none" 
	d="
M236.569382,370.613525 
	C223.798508,370.845886 210.807388,370.730896 197.493851,370.388733 
	C210.230667,370.196411 223.289902,370.231293 236.569382,370.613525 
z"/>
<path fill="#4B5B6F" opacity="1.000000" stroke="none" 
	d="
M250.747070,427.782196 
	C259.116760,425.915497 259.031128,425.914948 259.095123,416.114624 
	C259.112427,413.466034 259.820038,410.821930 260.608276,408.082581 
	C260.664734,411.252014 260.197235,414.507751 260.019165,417.779266 
	C259.849762,420.892395 259.982666,424.021942 259.982666,427.804413 
	C256.689117,427.804413 253.931076,427.804413 250.747070,427.782196 
z"/>
<path fill="#9DA3AA" opacity="1.000000" stroke="none" 
	d="
M231.756439,392.584961 
	C224.151672,392.984558 216.373932,392.984558 208.146576,392.984558 
	C208.146576,389.504181 208.146576,386.409943 208.518463,383.419861 
	C208.937393,383.709717 208.984451,383.895386 209.031494,384.081055 
	C209.031494,386.545258 209.031494,389.009430 209.031494,392.185364 
	C216.731659,392.185364 224.157578,392.185364 231.756439,392.584961 
z"/>
<path fill="#8190A1" opacity="1.000000" stroke="none" 
	d="
M236.694733,416.556000 
	C227.704453,416.867676 218.512344,416.802429 209.152679,416.332214 
	C218.154388,416.011200 227.323654,416.095154 236.694733,416.556000 
z"/>
<path fill="#FEFEFE" opacity="1.000000" stroke="none" 
	d="
M209.496063,384.044250 
	C208.984451,383.895386 208.937393,383.709717 208.913071,383.237732 
	C217.697037,382.907745 226.458282,382.864075 235.695892,382.883331 
	C234.530212,383.298126 232.892624,383.927277 231.245331,383.953796 
	C224.151978,384.068115 217.055786,384.005585 209.496063,384.044250 
z"/>
<path fill="#8190A1" opacity="1.000000" stroke="none" 
	d="
M209.049744,415.554230 
	C208.793823,412.475311 208.514740,408.937347 208.611084,405.198181 
	C208.999893,408.363068 209.013229,411.729095 209.049744,415.554230 
z"/>
<path fill="#FEFEFE" opacity="1.000000" stroke="none" 
	d="
M157.098969,272.906372 
	C145.559891,252.837021 134.138290,233.121002 122.872856,213.316147 
	C122.072769,211.909592 121.636398,209.399918 122.348549,208.159958 
	C142.227509,173.547470 162.276154,139.032440 182.306122,104.506729 
	C182.551910,104.083092 182.918411,103.729492 183.377396,103.157852 
	C197.945145,127.285164 212.362106,151.167236 226.783951,175.046341 
	C233.405182,186.009476 240.099075,196.929855 246.574036,207.978607 
	C247.295959,209.210526 247.461929,211.553772 246.768906,212.715240 
	C225.808411,247.843704 204.707535,282.888367 183.396667,318.331909 
	C174.567642,303.102448 165.910995,288.170288 157.098969,272.906372 
z"/>
<path fill="#B7E4FB" opacity="1.000000" stroke="none" 
	d="
M390.201599,224.591827 
	C379.131927,243.915771 368.076324,263.247803 356.987366,282.560699 
	C350.207672,294.368439 343.376801,306.146790 336.144592,318.673309 
	C326.149261,298.493500 316.440125,278.891510 306.451660,258.725586 
	C276.431641,276.002686 246.593842,293.174896 216.756027,310.347137 
	C216.485306,310.073730 216.214600,309.800354 215.943893,309.526947 
	C233.060822,280.819305 250.177765,252.111694 268.049561,223.212433 
	C307.295807,223.013916 345.787262,222.983475 384.278473,223.067902 
	C386.253967,223.072235 388.227295,224.061264 390.201599,224.591827 
z"/>
<path fill="#B7E4FB" opacity="1.000000" stroke="none" 
	d="
M244.970108,161.043335 
	C235.189606,144.781204 225.579788,128.840759 215.969986,112.900314 
	C216.130524,112.663879 216.291061,112.427444 216.451599,112.191002 
	C246.361572,129.455002 276.271545,146.719009 306.580200,164.213135 
	C316.512909,143.954773 326.362030,123.866814 336.601227,102.983322 
	C355.215698,135.129105 373.480133,166.670425 392.138947,198.892807 
	C390.016205,198.892807 388.747070,198.892746 387.477936,198.892822 
	C349.014893,198.895142 310.551636,198.849609 272.089081,198.985107 
	C268.794098,198.996704 267.053253,197.959641 265.425049,195.167435 
	C258.806213,183.816833 251.925171,172.619125 244.970108,161.043335 
z"/>
<path fill="#FAFBFB" opacity="1.000000" stroke="none" 
	d="
M315.987701,89.934311 
	C316.288452,90.442276 316.976410,91.137703 316.834259,91.431282 
	C310.278778,104.973526 303.650848,118.480713 296.924469,132.210022 
	C273.100311,118.506538 249.583389,104.983238 226.085281,91.427345 
	C225.766602,91.243500 225.685379,90.647987 226.214996,90.170502 
	C256.620331,90.042358 286.304016,89.988335 315.987701,89.934311 
z"/>
<path fill="#F7F8F9" opacity="1.000000" stroke="none" 
	d="
M228.956421,330.844238 
	C229.208603,330.282501 229.303162,329.448059 229.735565,329.198120 
	C251.990143,316.334442 274.273407,303.520416 297.115845,290.377625 
	C303.492615,303.752838 309.748901,316.875275 315.503662,330.291016 
	C298.418030,330.563049 281.833740,330.495728 265.249725,330.535980 
	C253.151779,330.565338 241.054184,330.736359 228.956421,330.844238 
z"/>
<path fill="#051F3D" opacity="1.000000" stroke="none" 
	d="
M269.014587,221.588516 
	C270.446655,221.059174 271.877686,220.070648 273.310913,220.067490 
	C311.447968,219.983582 349.585266,219.988373 387.722382,220.054977 
	C389.052887,220.057312 390.381989,220.847672 391.396545,221.526855 
	C383.939728,221.771210 376.798126,221.759033 369.656494,221.747711 
	C336.109192,221.694519 302.561890,221.641556 269.014587,221.588516 
z"/>
<path fill="#CBF1FF" opacity="1.000000" stroke="none" 
	d="
M268.740967,221.760284 
	C302.561890,221.641556 336.109192,221.694519 369.656494,221.747711 
	C376.798126,221.759033 383.939728,221.771210 391.536682,221.900620 
	C391.563873,222.746841 391.135803,223.475418 390.454651,224.397919 
	C388.227295,224.061264 386.253967,223.072235 384.278473,223.067902 
	C345.787262,222.983475 307.295807,223.013916 268.324677,223.023254 
	C268.052429,222.661133 268.259888,222.296600 268.740967,221.760284 
z"/>
<path fill="#051F3D" opacity="1.000000" stroke="none" 
	d="
M315.663239,89.678009 
	C286.304016,89.988335 256.620331,90.042358 226.476212,90.008194 
	C227.265610,89.614105 228.514984,89.043495 229.765381,89.041229 
	C257.480560,88.991096 285.195892,89.000229 312.911163,89.021988 
	C313.720459,89.022621 314.529572,89.282631 315.663239,89.678009 
z"/>
<path fill="#051F3D" opacity="1.000000" stroke="none" 
	d="
M229.252396,331.146973 
	C241.054184,330.736359 253.151779,330.565338 265.249725,330.535980 
	C281.833740,330.495728 298.418030,330.563049 315.461914,330.650269 
	C314.741180,331.145935 313.561707,331.947571 312.380157,331.950623 
	C285.568665,332.019501 258.756927,332.005676 231.945282,331.975739 
	C231.146103,331.974854 230.347336,331.632721 229.252396,331.146973 
z"/>
<path fill="#000000" opacity="1.000000" stroke="none" 
	d="
M163.587738,417.021301 
	C162.650101,417.027130 162.151535,417.029846 161.652969,417.031006 
	C155.452988,417.045227 152.958374,413.486115 155.144485,407.742493 
	C155.260071,407.438873 155.334213,407.090332 155.534485,406.852722 
	C157.336090,404.715363 169.433289,406.166382 170.703400,408.658661 
	C172.722977,412.621582 170.153595,415.838318 163.587738,417.021301 
z"/>
<path fill="#000000" opacity="1.000000" stroke="none" 
	d="
M167.096375,391.892883 
	C163.534210,392.379791 160.273148,393.091949 157.125885,392.751678 
	C156.246170,392.656586 155.169601,389.458069 155.165466,387.680878 
	C155.161880,386.142120 156.273621,383.564667 157.378693,383.269958 
	C159.862198,382.607666 162.696564,382.759491 165.298523,383.160828 
	C169.180542,383.759552 169.965576,387.287018 167.096375,391.892883 
z"/>
<path fill="#000000" opacity="1.000000" stroke="none" 
	d="
M317.783295,385.737549 
	C323.843567,381.377869 330.094208,380.334778 336.143982,384.240448 
	C341.972748,388.003448 345.325592,393.610474 344.969513,400.908203 
	C344.604218,408.395355 339.149109,415.472107 332.573517,416.819580 
	C323.447723,418.689606 316.356201,415.502350 313.742981,409.925323 
	C310.107361,402.166412 309.995544,392.993958 317.783295,385.737549 
z"/>
<path fill="#000000" opacity="1.000000" stroke="none" 
	d="
M264.068359,395.958618 
	C261.237305,396.135681 260.059570,395.359680 259.862274,392.651398 
	C259.163696,383.063019 259.151917,382.981812 268.786591,382.991150 
	C272.538483,382.994781 275.846832,383.078247 277.388916,387.761444 
	C278.725464,391.820374 276.575134,393.665192 273.800690,394.652832 
	C270.917145,395.679382 267.629852,395.571960 264.068359,395.958618 
z"/>
</svg>