<svg version="1.1" id="Layer_1" xmlns="http://www.w3.org/2000/svg" xmlns:xlink="http://www.w3.org/1999/xlink" x="0px" y="0px"
	 width="100%" viewBox="0 0 2000 2000" enable-background="new 0 0 2000 2000" xml:space="preserve">
<path fill="#030712" opacity="1.000000" stroke="none" 
	d="
M1170.000000,2001.000000 
	C780.000000,2001.000000 390.500000,2001.000000 1.000000,2001.000000 
	C1.000000,1334.333374 1.000000,667.666687 1.000000,1.000000 
	C667.666687,1.000000 1334.333374,1.000000 2001.000000,1.000000 
	C2001.000000,667.666687 2001.000000,1334.333374 2001.000000,2001.000000 
	C1724.166626,2001.000000 1447.333374,2001.000000 1170.000000,2001.000000 
M998.340881,1428.890991 
	C1001.317261,1412.185059 1004.292297,1395.479004 1007.270142,1378.773315 
	C1018.538208,1315.558228 1029.801270,1252.342163 1041.082764,1189.129517 
	C1042.703979,1180.045898 1044.416748,1170.978638 1046.024414,1162.244873 
	C1060.673828,1160.830566 1074.599121,1159.506836 1088.520020,1158.137939 
	C1132.800903,1153.783447 1176.574219,1146.373779 1219.821533,1135.945435 
	C1302.860107,1115.922119 1380.989624,1084.224976 1453.103027,1038.061768 
	C1534.848267,985.732727 1601.003418,918.699219 1647.509277,833.033264 
	C1680.030151,773.127930 1699.714111,709.180237 1706.884155,641.422546 
	C1710.486206,607.383301 1711.062866,573.284424 1708.133179,539.126404 
	C1704.817993,500.475922 1697.134155,462.789307 1683.925171,426.300690 
	C1657.074707,352.128418 1612.982422,290.383728 1550.135986,242.460556 
	C1494.057495,199.698105 1431.175659,171.249466 1362.697510,154.942383 
	C1316.046631,143.833176 1268.683472,138.425095 1220.790161,136.661301 
	C1151.536621,134.110855 1083.016113,139.578690 1015.236023,154.024399 
	C955.178223,166.824295 897.439148,186.498398 842.072449,213.054535 
	C786.075989,239.912720 733.402283,272.131134 685.242371,311.460388 
	C613.860168,369.753906 555.144470,439.095642 506.422699,517.124329 
	C451.800232,604.602966 410.156952,697.855164 381.594574,796.955933 
	C364.021362,857.928406 350.378723,919.777527 342.046448,982.669128 
	C336.537750,1024.248169 331.807373,1065.977905 328.431763,1107.777588 
	C325.523560,1143.789673 324.454590,1179.982666 323.576660,1216.119873 
	C321.642670,1295.727905 325.488159,1374.954834 340.899109,1453.343872 
	C354.399994,1522.017212 376.905548,1587.363770 412.049927,1648.077026 
	C443.257568,1701.989502 482.683319,1748.439819 535.491211,1782.566406 
	C606.802551,1828.650757 684.491333,1848.234741 768.939331,1836.794434 
	C828.074768,1828.783325 874.829285,1799.270264 909.295715,1750.513184 
	C937.518616,1710.588501 953.686829,1665.546143 963.829285,1618.253662 
	C970.662781,1586.390259 975.993958,1554.201050 981.809753,1522.123779 
	C987.389038,1491.351074 992.726562,1460.534668 998.340881,1428.890991 
M1136.426270,1730.074951 
	C1159.526367,1749.466309 1186.652954,1760.508179 1215.641235,1766.981812 
	C1258.807861,1776.621704 1302.463867,1777.602051 1346.255127,1771.893677 
	C1376.454590,1767.957031 1405.524658,1760.141968 1432.594604,1745.701904 
	C1474.295654,1723.457153 1502.234741,1690.764648 1510.474976,1643.207153 
	C1514.734863,1618.622070 1514.891602,1594.053467 1506.697021,1570.161621 
	C1496.448364,1540.280762 1475.521240,1518.692017 1449.425171,1502.557251 
	C1431.137329,1491.250366 1411.443359,1482.032837 1391.814087,1473.123291 
	C1361.282227,1459.265625 1330.160645,1446.712646 1299.505493,1433.118652 
	C1281.373291,1425.077515 1265.063477,1413.964722 1252.486694,1398.452881 
	C1224.673950,1364.149658 1237.129150,1311.631592 1277.142456,1291.978760 
	C1291.968872,1284.696777 1307.558472,1280.388062 1323.831055,1278.484375 
	C1352.172363,1275.169189 1380.415894,1275.052612 1407.808716,1284.375977 
	C1415.900391,1287.129883 1423.888916,1290.940918 1431.006348,1295.654175 
	C1448.371460,1307.153564 1452.931519,1324.333618 1450.661255,1344.138062 
	C1449.296265,1356.045654 1448.032349,1367.977783 1447.224731,1379.932739 
	C1446.400879,1392.128906 1451.526733,1401.803223 1461.003784,1409.396240 
	C1478.960327,1423.783447 1513.913940,1423.194946 1527.931519,1391.908936 
	C1537.507812,1370.535645 1538.822510,1347.745605 1537.593384,1324.846558 
	C1536.049316,1296.081909 1524.843262,1271.510254 1503.858765,1251.439209 
	C1484.494019,1232.917358 1461.323242,1221.340088 1435.919434,1214.124390 
	C1387.822388,1200.462646 1339.172729,1200.819214 1290.524292,1210.546143 
	C1256.150513,1217.418945 1224.286987,1230.529907 1197.503052,1253.786499 
	C1155.238525,1290.484863 1140.557983,1337.446899 1147.632812,1392.010010 
	C1152.124023,1426.647949 1171.094971,1452.876343 1196.820557,1475.033447 
	C1214.422729,1490.193848 1234.858276,1500.673950 1255.897217,1509.856934 
	C1287.389526,1523.602539 1319.291138,1536.406982 1350.877686,1549.941040 
	C1370.202271,1558.221191 1388.253906,1568.415039 1403.747925,1583.200439 
	C1428.698975,1607.009644 1425.563965,1650.463379 1401.696899,1672.410278 
	C1386.499023,1686.385498 1368.235474,1693.866577 1348.447998,1698.003662 
	C1321.276978,1703.684204 1293.828003,1703.347168 1266.362183,1700.656128 
	C1249.070679,1698.962158 1232.200439,1695.430420 1216.300171,1688.084473 
	C1192.743896,1677.201294 1182.780273,1659.427856 1185.666260,1633.928223 
	C1187.031250,1621.868164 1188.333618,1609.773926 1188.905151,1597.659302 
	C1189.455811,1585.987671 1184.374146,1576.728760 1174.453613,1570.347534 
	C1160.327271,1561.261108 1145.216797,1560.688965 1130.016846,1566.538208 
	C1114.465088,1572.523071 1107.300903,1585.865845 1103.047485,1600.916748 
	C1097.528564,1620.445679 1097.312622,1640.360596 1099.947876,1660.351562 
	C1103.561035,1687.760132 1115.020752,1711.138672 1136.426270,1730.074951 
z"/>
<path fill="#FFFFFF" opacity="1.000000" stroke="none" 
	d="
M998.255615,1429.314209 
	C992.726562,1460.534668 987.389038,1491.351074 981.809753,1522.123779 
	C975.993958,1554.201050 970.662781,1586.390259 963.829285,1618.253662 
	C953.686829,1665.546143 937.518616,1710.588501 909.295715,1750.513184 
	C874.829285,1799.270264 828.074768,1828.783325 768.939331,1836.794434 
	C684.491333,1848.234741 606.802551,1828.650757 535.491211,1782.566406 
	C482.683319,1748.439819 443.257568,1701.989502 412.049927,1648.077026 
	C376.905548,1587.363770 354.399994,1522.017212 340.899109,1453.343872 
	C325.488159,1374.954834 321.642670,1295.727905 323.576660,1216.119873 
	C324.454590,1179.982666 325.523560,1143.789673 328.431763,1107.777588 
	C331.807373,1065.977905 336.537750,1024.248169 342.046448,982.669128 
	C350.378723,919.777527 364.021362,857.928406 381.594574,796.955933 
	C410.156952,697.855164 451.800232,604.602966 506.422699,517.124329 
	C555.144470,439.095642 613.860168,369.753906 685.242371,311.460388 
	C733.402283,272.131134 786.075989,239.912720 842.072449,213.054535 
	C897.439148,186.498398 955.178223,166.824295 1015.236023,154.024399 
	C1083.016113,139.578690 1151.536621,134.110855 1220.790161,136.661301 
	C1268.683472,138.425095 1316.046631,143.833176 1362.697510,154.942383 
	C1431.175659,171.249466 1494.057495,199.698105 1550.135986,242.460556 
	C1612.982422,290.383728 1657.074707,352.128418 1683.925171,426.300690 
	C1697.134155,462.789307 1704.817993,500.475922 1708.133179,539.126404 
	C1711.062866,573.284424 1710.486206,607.383301 1706.884155,641.422546 
	C1699.714111,709.180237 1680.030151,773.127930 1647.509277,833.033264 
	C1601.003418,918.699219 1534.848267,985.732727 1453.103027,1038.061768 
	C1380.989624,1084.224976 1302.860107,1115.922119 1219.821533,1135.945435 
	C1176.574219,1146.373779 1132.800903,1153.783447 1088.520020,1158.137939 
	C1074.599121,1159.506836 1060.673828,1160.830566 1046.024414,1162.244873 
	C1044.416748,1170.978638 1042.703979,1180.045898 1041.082764,1189.129517 
	C1029.801270,1252.342163 1018.538208,1315.558228 1007.270142,1378.773315 
	C1004.292297,1395.479004 1001.317261,1412.185059 998.255615,1429.314209 
M845.419739,417.921234 
	C797.344910,451.467163 756.080872,492.134125 719.968567,538.148499 
	C677.828491,591.843262 644.696350,650.810059 617.868042,713.427734 
	C587.794006,783.620911 566.088318,856.388550 550.757141,931.143311 
	C541.050293,978.473938 533.763733,1026.178223 529.337158,1074.255981 
	C526.283936,1107.417603 524.329834,1140.703491 522.788513,1173.975830 
	C520.481628,1223.776489 520.561646,1273.583862 524.844604,1323.323730 
	C528.838196,1369.702393 536.591797,1415.372314 550.034302,1459.993286 
	C561.538391,1498.180176 575.909668,1535.111450 599.254272,1567.864746 
	C610.610962,1583.798462 623.169312,1598.819580 640.485352,1608.672119 
	C664.521545,1622.348267 684.085571,1620.051758 699.887329,1596.931274 
	C706.293762,1587.557861 711.536438,1577.158569 715.844971,1566.627197 
	C726.656433,1540.200806 732.493408,1512.359619 737.390503,1484.321899 
	C746.235168,1433.682861 755.107239,1383.048584 763.952087,1332.409668 
	C772.510559,1283.410156 781.054871,1234.408081 789.591003,1185.404785 
	C791.236511,1175.958862 792.815369,1166.501343 794.463257,1156.824829 
	C783.493591,1155.151001 773.120239,1153.695312 762.792786,1151.965454 
	C742.319214,1148.536255 721.604614,1146.523315 701.681702,1140.017578 
	C676.536011,1131.806396 659.701721,1116.003418 652.915527,1089.983398 
	C648.621277,1073.518188 647.216736,1056.924561 648.928894,1040.005615 
	C653.121216,998.578979 680.985107,970.042114 725.373413,967.885010 
	C747.747131,966.797791 769.422302,971.666138 791.354431,974.456055 
	C802.359741,975.855957 813.382507,977.119385 824.484253,978.455017 
	C825.068420,975.387146 825.530701,973.131104 825.925049,970.863220 
	C835.415222,916.284058 844.770569,861.681091 854.418823,807.129883 
	C863.805237,754.059143 873.361877,701.017517 883.107056,648.011536 
	C887.073547,626.437073 890.677002,604.709167 896.302673,583.544739 
	C907.599182,541.046021 935.645996,514.000916 977.286133,500.903198 
	C1011.348938,490.188934 1045.876953,490.342804 1080.377930,498.291718 
	C1098.655029,502.502716 1114.665161,511.153290 1125.566406,527.169861 
	C1135.410645,541.633484 1139.052246,558.078003 1140.097778,575.259094 
	C1141.677734,601.225098 1138.130127,626.727539 1133.672607,652.218079 
	C1125.218628,700.562622 1117.175903,748.979065 1108.949829,797.363647 
	C1101.448853,841.484009 1093.924194,885.600403 1086.425171,929.721130 
	C1083.710205,945.694458 1081.039307,961.675171 1078.288208,978.008667 
	C1079.803101,977.924255 1080.797241,977.973572 1081.751099,977.800293 
	C1105.146973,973.551697 1128.709961,970.045288 1151.895630,964.854553 
	C1202.666626,953.487854 1250.856201,935.363586 1294.894897,907.137817 
	C1361.825195,864.240173 1405.446899,804.121033 1427.342285,727.935608 
	C1436.579590,695.794373 1441.430664,662.964966 1443.242065,629.609070 
	C1444.945801,598.232727 1444.977539,566.930359 1438.041748,536.109558 
	C1416.629761,440.959320 1358.988403,379.006958 1265.994385,350.146973 
	C1229.707031,338.885498 1192.272949,334.199371 1154.352661,332.672943 
	C1109.221558,330.856262 1064.490112,333.568573 1020.188782,342.649445 
	C956.964478,355.609100 898.982605,380.725037 845.419739,417.921234 
z"/>
<path fill="#FEFEFE" opacity="1.000000" stroke="none" 
	d="
M1136.156250,1729.845459 
	C1115.020752,1711.138672 1103.561035,1687.760132 1099.947876,1660.351562 
	C1097.312622,1640.360596 1097.528564,1620.445679 1103.047485,1600.916748 
	C1107.300903,1585.865845 1114.465088,1572.523071 1130.016846,1566.538208 
	C1145.216797,1560.688965 1160.327271,1561.261108 1174.453613,1570.347534 
	C1184.374146,1576.728760 1189.455811,1585.987671 1188.905151,1597.659302 
	C1188.333618,1609.773926 1187.031250,1621.868164 1185.666260,1633.928223 
	C1182.780273,1659.427856 1192.743896,1677.201294 1216.300171,1688.084473 
	C1232.200439,1695.430420 1249.070679,1698.962158 1266.362183,1700.656128 
	C1293.828003,1703.347168 1321.276978,1703.684204 1348.447998,1698.003662 
	C1368.235474,1693.866577 1386.499023,1686.385498 1401.696899,1672.410278 
	C1425.563965,1650.463379 1428.698975,1607.009644 1403.747925,1583.200439 
	C1388.253906,1568.415039 1370.202271,1558.221191 1350.877686,1549.941040 
	C1319.291138,1536.406982 1287.389526,1523.602539 1255.897217,1509.856934 
	C1234.858276,1500.673950 1214.422729,1490.193848 1196.820557,1475.033447 
	C1171.094971,1452.876343 1152.124023,1426.647949 1147.632812,1392.010010 
	C1140.557983,1337.446899 1155.238525,1290.484863 1197.503052,1253.786499 
	C1224.286987,1230.529907 1256.150513,1217.418945 1290.524292,1210.546143 
	C1339.172729,1200.819214 1387.822388,1200.462646 1435.919434,1214.124390 
	C1461.323242,1221.340088 1484.494019,1232.917358 1503.858765,1251.439209 
	C1524.843262,1271.510254 1536.049316,1296.081909 1537.593384,1324.846558 
	C1538.822510,1347.745605 1537.507812,1370.535645 1527.931519,1391.908936 
	C1513.913940,1423.194946 1478.960327,1423.783447 1461.003784,1409.396240 
	C1451.526733,1401.803223 1446.400879,1392.128906 1447.224731,1379.932739 
	C1448.032349,1367.977783 1449.296265,1356.045654 1450.661255,1344.138062 
	C1452.931519,1324.333618 1448.371460,1307.153564 1431.006348,1295.654175 
	C1423.888916,1290.940918 1415.900391,1287.129883 1407.808716,1284.375977 
	C1380.415894,1275.052612 1352.172363,1275.169189 1323.831055,1278.484375 
	C1307.558472,1280.388062 1291.968872,1284.696777 1277.142456,1291.978760 
	C1237.129150,1311.631592 1224.673950,1364.149658 1252.486694,1398.452881 
	C1265.063477,1413.964722 1281.373291,1425.077515 1299.505493,1433.118652 
	C1330.160645,1446.712646 1361.282227,1459.265625 1391.814087,1473.123291 
	C1411.443359,1482.032837 1431.137329,1491.250366 1449.425171,1502.557251 
	C1475.521240,1518.692017 1496.448364,1540.280762 1506.697021,1570.161621 
	C1514.891602,1594.053467 1514.734863,1618.622070 1510.474976,1643.207153 
	C1502.234741,1690.764648 1474.295654,1723.457153 1432.594604,1745.701904 
	C1405.524658,1760.141968 1376.454590,1767.957031 1346.255127,1771.893677 
	C1302.463867,1777.602051 1258.807861,1776.621704 1215.641235,1766.981812 
	C1186.652954,1760.508179 1159.526367,1749.466309 1136.156250,1729.845459 
z"/>
<path fill="#030712" opacity="1.000000" stroke="none" 
	d="
M845.709595,417.708832 
	C898.982605,380.725037 956.964478,355.609100 1020.188782,342.649445 
	C1064.490112,333.568573 1109.221558,330.856262 1154.352661,332.672943 
	C1192.272949,334.199371 1229.707031,338.885498 1265.994385,350.146973 
	C1358.988403,379.006958 1416.629761,440.959320 1438.041748,536.109558 
	C1444.977539,566.930359 1444.945801,598.232727 1443.242065,629.609070 
	C1441.430664,662.964966 1436.579590,695.794373 1427.342285,727.935608 
	C1405.446899,804.121033 1361.825195,864.240173 1294.894897,907.137817 
	C1250.856201,935.363586 1202.666626,953.487854 1151.895630,964.854553 
	C1128.709961,970.045288 1105.146973,973.551697 1081.751099,977.800293 
	C1080.797241,977.973572 1079.803101,977.924255 1078.288208,978.008667 
	C1081.039307,961.675171 1083.710205,945.694458 1086.425171,929.721130 
	C1093.924194,885.600403 1101.448853,841.484009 1108.949829,797.363647 
	C1117.175903,748.979065 1125.218628,700.562622 1133.672607,652.218079 
	C1138.130127,626.727539 1141.677734,601.225098 1140.097778,575.259094 
	C1139.052246,558.078003 1135.410645,541.633484 1125.566406,527.169861 
	C1114.665161,511.153290 1098.655029,502.502716 1080.377930,498.291718 
	C1045.876953,490.342804 1011.348938,490.188934 977.286133,500.903198 
	C935.645996,514.000916 907.599182,541.046021 896.302673,583.544739 
	C890.677002,604.709167 887.073547,626.437073 883.107056,648.011536 
	C873.361877,701.017517 863.805237,754.059143 854.418823,807.129883 
	C844.770569,861.681091 835.415222,916.284058 825.925049,970.863220 
	C825.530701,973.131104 825.068420,975.387146 824.484253,978.455017 
	C813.382507,977.119385 802.359741,975.855957 791.354431,974.456055 
	C769.422302,971.666138 747.747131,966.797791 725.373413,967.885010 
	C680.985107,970.042114 653.121216,998.578979 648.928894,1040.005615 
	C647.216736,1056.924561 648.621277,1073.518188 652.915527,1089.983398 
	C659.701721,1116.003418 676.536011,1131.806396 701.681702,1140.017578 
	C721.604614,1146.523315 742.319214,1148.536255 762.792786,1151.965454 
	C773.120239,1153.695312 783.493591,1155.151001 794.463257,1156.824829 
	C792.815369,1166.501343 791.236511,1175.958862 789.591003,1185.404785 
	C781.054871,1234.408081 772.510559,1283.410156 763.952087,1332.409668 
	C755.107239,1383.048584 746.235168,1433.682861 737.390503,1484.321899 
	C732.493408,1512.359619 726.656433,1540.200806 715.844971,1566.627197 
	C711.536438,1577.158569 706.293762,1587.557861 699.887329,1596.931274 
	C684.085571,1620.051758 664.521545,1622.348267 640.485352,1608.672119 
	C623.169312,1598.819580 610.610962,1583.798462 599.254272,1567.864746 
	C575.909668,1535.111450 561.538391,1498.180176 550.034302,1459.993286 
	C536.591797,1415.372314 528.838196,1369.702393 524.844604,1323.323730 
	C520.561646,1273.583862 520.481628,1223.776489 522.788513,1173.975830 
	C524.329834,1140.703491 526.283936,1107.417603 529.337158,1074.255981 
	C533.763733,1026.178223 541.050293,978.473938 550.757141,931.143311 
	C566.088318,856.388550 587.794006,783.620911 617.868042,713.427734 
	C644.696350,650.810059 677.828491,591.843262 719.968567,538.148499 
	C756.080872,492.134125 797.344910,451.467163 845.709595,417.708832 
z"/>
</svg>